<svg viewBox="0 0 40 40" xmlns="http://www.w3.org/2000/svg">
  <rect x="2" y="2" width="36" height="36" rx="8" fill="white" stroke="#e4e2dd" stroke-width="1"/>
  <!-- rainbow splat blobs -->
  <ellipse cx="18" cy="21" rx="5" ry="3.5" fill="#e0342f" transform="rotate(-20 18 21)"/>
  <ellipse cx="22" cy="19" rx="5" ry="3" fill="#f08a24" transform="rotate(15 22 19)"/>
  <ellipse cx="21" cy="22" rx="4" ry="3" fill="#f4c20d" transform="rotate(40 21 22)"/>
  <ellipse cx="19" cy="23" rx="4" ry="2.5" fill="#43a047" transform="rotate(-35 19 23)"/>
  <ellipse cx="17" cy="22" rx="3.5" ry="2.5" fill="#18a999" transform="rotate(10 17 22)"/>
  <ellipse cx="16" cy="20" rx="3.5" ry="2.5" fill="#2a6fdb" transform="rotate(-10 16 20)"/>
  <ellipse cx="17" cy="18" rx="4" ry="2.5" fill="#9c27b0" transform="rotate(25 17 18)"/>
  <!-- small droplets -->
  <circle cx="28" cy="12" r="1.5" fill="#e0342f"/>
  <circle cx="10" cy="14" r="1.2" fill="#2a6fdb"/>
  <circle cx="30" cy="26" r="1" fill="#43a047"/>
  <circle cx="12" cy="30" r="1.3" fill="#f08a24"/>
  <circle cx="26" cy="30" r="1" fill="#9c27b0"/>
</svg>
